Coordinates
version=1
nRows=29
nColumns=24
inDegrees=yes

Units are S.I. units (second, meters, Newtons, ...)
If the header above contains a line with 'inDegrees', this indicates whether rotational values are in degrees (yes) or radians (no).

endheader
time	pelvis_tilt	pelvis_list	pelvis_rotation	pelvis_tx	pelvis_ty	pelvis_tz	hip_flexion_r	hip_adduction_r	hip_rotation_r	knee_angle_r	ankle_angle_r	subtalar_angle_r	mtp_angle_r	hip_flexion_l	hip_adduction_l	hip_rotation_l	knee_angle_l	ankle_angle_l	subtalar_angle_l	mtp_angle_l	lumbar_extension	lumbar_bending	lumbar_rotation
      0.28000000	      4.91736444	     -1.95244907	      4.34221972	     -0.43236219	      0.71221761	     -0.30022941	     24.97951720	      3.02336017	     -7.85476838	    -25.90425010	      1.95769813	    -13.72164349	      0.00000000	     -8.62553384	     -6.55446362	     -5.43001814	    -46.43419361	     -3.01811156	    -15.20213032	      0.00000000	      0.00000000	      0.00000000	      0.00000000
      0.28666667	      5.07999913	     -2.47528340	      4.35556149	     -0.42412144	      0.71301998	     -0.29908833	     24.44402991	      3.82198490	     -7.60226349	    -26.39325310	      2.48177388	    -14.08894745	      0.00000000	     -7.50737966	     -7.51637267	     -5.66739942	    -48.79383894	     -4.17045450	    -16.36588510	      0.00000000	      0.00000000	      0.00000000	      0.00000000
      0.29333333	      5.36050241	     -2.73426637	      4.35015821	     -0.41621271	      0.71400283	     -0.29809720	     23.79680049	      4.33423159	     -7.34797534	    -26.90792113	      3.01103171	    -14.46761195	      0.00000000	     -6.49626953	     -8.12395407	     -5.76436785	    -51.02704505	     -4.83306983	    -17.34259536	      0.00000000	      0.00000000	      0.00000000	      0.00000000
      0.30000000	      4.93494173	     -3.08244178	      4.59723782	     -0.40839440	      0.71455926	     -0.29735152	     23.74959128	      4.82949096	     -7.26777998	    -27.08976634	      3.14319604	    -15.44165921	      0.00000000	     -4.44504088	     -8.68669552	     -5.31978983	    -53.37334576	     -6.43002595	    -20.23714169	      0.00000000	      0.00000000	      0.00000000	      0.00000000
      0.30666667	      5.11833181	     -3.39409824	      4.62792812	     -0.40062649	      0.71560108	     -0.29646964	     23.04896431	      5.38970773	     -7.11539540	    -27.33648246	      3.85322118	    -15.70662089	      0.00000000	     -3.17620500	     -9.30805521	     -5.29484236	    -55.49335776	     -6.67327677	    -21.28554433	      0.00000000	      0.00000000	      0.00000000	      0.00000000
      0.31333333	      4.94486395	     -3.55694400	      4.84802428	     -0.39312939	      0.71643688	     -0.29582100	     22.73031329	      5.67189428	     -7.18467606	    -27.57027526	      4.35160660	    -16.00727468	      0.00000000	     -1.33622586	     -9.62530759	     -4.84463587	    -57.60711874	     -7.15108447	    -22.88429319	      0.00000000	      0.00000000	      0.00000000	      0.00000000
      0.32000000	      4.96175485	     -3.67527170	      4.96593006	     -0.38566091	      0.71749134	     -0.29517686	     22.13953107	      5.94966604	     -7.20418878	    -27.71204337	      5.10469910	    -16.10535984	      0.00000000	      0.24032752	     -9.90149627	     -4.57895432	    -59.50337380	     -7.04518098	    -23.77618598	      0.00000000	      0.00000000	      0.00000000	      0.00000000
      0.32666667	      4.88535793	     -3.69046860	      5.09963918	     -0.37834817	      0.71851549	     -0.29466071	     21.63076961	      6.07352027	     -7.30463465	    -27.83572898	      5.94990299	    -16.01197238	      0.00000000	      1.96005861	     -9.98465011	     -4.24015776	    -61.27163982	     -6.68049237	    -24.32831619	      0.00000000	      0.00000000	      0.00000000	      0.00000000
      0.33333333	      5.16049458	     -3.44470008	      4.89479784	     -0.37091302	      0.72026796	     -0.29413666	     20.62687263	      6.01354546	     -7.17374850	    -27.81107707	      6.19766994	    -16.02458094	      0.00000000	      3.00470275	     -9.76187430	     -4.38822897	    -62.53164958	     -6.38311045	    -24.53477346	      0.00000000	      0.00000000	      0.00000000	      0.00000000
      0.34000000	      4.82067604	     -3.58396872	      5.34297302	     -0.36395164	      0.72086248	     -0.29388409	     20.36633968	      6.13214304	     -7.64038993	    -27.84298786	      7.63114236	    -15.50554781	      0.00000000	      5.30138351	     -9.88582119	     -3.66780721	    -64.25754974	     -5.16059486	    -24.01464787	      0.00000000	      0.00000000	      0.00000000	      0.00000000
      0.34666667	      5.01905738	     -3.34474433	      5.25754946	     -0.35688979	      0.72245606	     -0.29350725	     19.39026856	      6.07089409	     -7.44887749	    -27.70915248	      8.15532073	    -15.46666260	      0.00000000	      6.56944599	     -9.54125021	     -3.60586911	    -65.31871163	     -4.64439712	    -23.97369402	      0.00000000	      0.00000000	      0.00000000	      0.00000000
      0.35333333	      4.62982471	     -3.22566870	      5.44638500	     -0.34978697	      0.72324193	     -0.29346449	     19.13458876	      5.81515187	     -8.12861474	    -27.72816062	      9.51518562	    -14.23663747	      0.00000000	      8.69151154	     -9.30922082	     -3.33116079	    -66.48964097	     -2.81073765	    -21.71520447	      0.00000000	      0.00000000	      0.00000000	      0.00000000
      0.36000000	      4.71127456	     -2.91582105	      5.40892856	     -0.34280804	      0.72476452	     -0.29331478	     18.20689861	      5.61109240	     -8.03693543	    -27.47620633	     10.32055342	    -14.02223085	      0.00000000	     10.07332722	     -8.76580087	     -3.22699848	    -67.19538177	     -2.04954276	    -20.89244197	      0.00000000	      0.00000000	      0.00000000	      0.00000000
      0.36666667	      4.60539592	     -2.64518155	      5.40552880	     -0.33585713	      0.72585837	     -0.29321025	     17.62510925	      5.28186712	     -8.41987401	    -27.48661215	     11.30158506	    -12.94422493	      0.00000000	     11.73340470	     -8.38091402	     -3.29996343	    -67.87879447	     -0.44789055	    -18.38941134	      0.00000000	      0.00000000	      0.00000000	      0.00000000
      0.37333333	      4.63215560	     -2.40489411	      5.25135335	     -0.32879249	      0.72719275	     -0.29306728	     16.76062028	      5.07321543	     -8.50870388	    -27.24234067	     12.22649860	    -11.95682412	      0.00000000	     13.11469501	     -8.03138538	     -3.54680339	    -68.26445433	      0.80562566	    -16.24927500	      0.00000000	      0.00000000	      0.00000000	      0.00000000
      0.38000000	      4.61087987	     -2.07907569	      5.09270902	     -0.32177411	      0.72848593	     -0.29297912	     15.94907646	      4.76009706	     -8.57588522	    -26.99684764	     12.98733304	    -11.19162474	      0.00000000	     14.49153915	     -7.52473776	     -3.78749218	    -68.43564089	      1.84385989	    -14.23720793	      0.00000000	      0.00000000	      0.00000000	      0.00000000
      0.38666667	      4.63922194	     -1.80620141	      4.89168602	     -0.31472966	      0.72974782	     -0.29286441	     15.06829953	      4.50173992	     -8.62658029	    -26.71770169	     13.84550671	    -10.28705730	      0.00000000	     15.78170950	     -7.14766442	     -4.16242453	    -68.44347399	      2.83868376	    -12.04814141	      0.00000000	      0.00000000	      0.00000000	      0.00000000
      0.39333333	      4.67603708	     -1.51466404	      4.64115512	     -0.30764235	      0.73096585	     -0.29274058	     14.16937628	      4.22601808	     -8.63368394	    -26.41553178	     14.63652972	     -9.45574371	      0.00000000	     16.98242716	     -6.75199284	     -4.60531248	    -68.25147674	      3.63201987	    -10.03843929	      0.00000000	      0.00000000	      0.00000000	      0.00000000
      0.40000000	      4.71590246	     -1.20261917	      4.33234747	     -0.30053940	      0.73214928	     -0.29259895	     13.26711499	      3.93008598	     -8.57362992	    -26.10856542	     15.36356369	     -8.73279271	      0.00000000	     18.11347867	     -6.36192897	     -5.15512859	    -67.86326351	      4.23171848	     -8.23289791	      0.00000000	      0.00000000	      0.00000000	      0.00000000
      0.40666667	      4.77818827	     -0.98690333	      3.98109717	     -0.29328640	      0.73324543	     -0.29239394	     12.31539753	      3.72446336	     -8.55577696	    -25.74272770	     16.10337413	     -7.90543826	      0.00000000	     19.14476845	     -6.13727039	     -5.77531459	    -67.31479528	      4.78990938	     -6.57001630	      0.00000000	      0.00000000	      0.00000000	      0.00000000
      0.41333333	      4.81004156	     -0.84450136	      3.76541585	     -0.28630495	      0.73409021	     -0.29243847	     11.42902768	      3.58680304	     -8.57980918	    -25.36242303	     16.29707744	     -7.77164584	      0.00000000	     20.31866825	     -5.89484067	     -6.25512919	    -66.78321971	      4.83937431	     -6.29695549	      0.00000000	      0.00000000	      0.00000000	      0.00000000
      0.42000000	      5.01557456	     -0.62695605	      3.24752759	     -0.27879606	      0.73518153	     -0.29199102	     10.30244451	      3.40714205	     -8.37104700	    -25.01176385	     17.49624558	     -6.25218104	      0.00000000	     20.94262964	     -5.82812674	     -7.13838008	    -65.82288001	      5.64604305	     -3.92767870	      0.00000000	      0.00000000	      0.00000000	      0.00000000
      0.42666667	      4.97303254	     -0.56256994	      2.99907499	     -0.27152280	      0.73580241	     -0.29188151	      9.47580683	      3.33613577	     -8.49407520	    -24.59695101	     17.76762382	     -6.13914982	      0.00000000	     22.01123054	     -5.74577341	     -7.69320637	    -64.93809893	      5.64372616	     -3.72644252	      0.00000000	      0.00000000	      0.00000000	      0.00000000
      0.43333333	      5.38847142	     -0.40897599	      2.49375576	     -0.26400991	      0.73678819	     -0.29147467	      8.12433146	      3.19500350	     -8.32218466	    -24.24160354	     18.93007479	     -4.60452073	      0.00000000	     22.32563242	     -5.79719989	     -8.64417067	    -63.78769152	      6.07962338	     -2.33572171	      0.00000000	      0.00000000	      0.00000000	      0.00000000
      0.44000000	      5.38331456	     -0.40500629	      2.08297190	     -0.25660788	      0.73724223	     -0.29111838	      7.22595460	      3.23914666	     -8.07263010	    -23.78323448	     19.41677498	     -4.21155796	      0.00000000	     23.13790140	     -5.88687396	     -9.36326722	    -62.57505927	      6.07455234	     -2.13680680	      0.00000000	      0.00000000	      0.00000000	      0.00000000
      0.44666667	      5.78531908	     -0.37436752	      1.62530819	     -0.24910943	      0.73786165	     -0.29073978	      5.95352672	      3.19347690	     -8.07035635	    -23.48401185	     20.18971704	     -3.29960271	      0.00000000	     23.39982526	     -6.09372601	    -10.37034106	    -61.26777002	      6.29946898	     -1.80969059	      0.00000000	      0.00000000	      0.00000000	      0.00000000
      0.45333333	      5.95730063	     -0.46678515	      1.18254463	     -0.24157061	      0.73814356	     -0.29031289	      4.89653567	      3.31943747	     -7.86077249	    -23.10243326	     20.76925457	     -2.77506608	      0.00000000	     23.87691760	     -6.39975080	    -11.27680196	    -59.87095223	      6.32313694	     -1.91583097	      0.00000000	      0.00000000	      0.00000000	      0.00000000
      0.46000000	      5.89620151	     -0.63244491	      0.92397095	     -0.23399605	      0.73801787	     -0.28998543	      4.07443753	      3.51527245	     -7.84418676	    -22.67614979	     21.16097446	     -2.56528804	      0.00000000	     24.63241883	     -6.71095429	    -11.98112964	    -58.44131357	      6.36669622	     -2.09176638	      0.00000000	      0.00000000	      0.00000000	      0.00000000
      0.46666667	      6.40366703	     -0.77866454	      0.36142048	     -0.22641917	      0.73839346	     -0.28940545	      2.65684818	      3.69185557	     -7.47149410	    -22.31403544	     21.84712742	     -1.89407736	      0.00000000	     24.51247830	     -7.15003817	    -13.09217268	    -56.73013758	      6.32849409	     -2.58314645	      0.00000000	      0.00000000	      0.00000000	      0.00000000
